<?xml version="1.0" encoding="UTF-8"?>
<!DOCTYPE svg PUBLIC "-//W3C//DTD SVG 1.1//EN" "http://www.w3.org/Graphics/SVG/1.1/DTD/svg11.dtd">
<!-- Creator: CorelDRAW (OEM Version) -->
<svg xmlns="http://www.w3.org/2000/svg" xml:space="preserve" width="30.2059mm" height="7.2814mm" version="1.1" style="shape-rendering:geometricPrecision; text-rendering:geometricPrecision; image-rendering:optimizeQuality; fill-rule:evenodd; clip-rule:evenodd"
viewBox="0 0 17430.11 4201.68"
 xmlns:xlink="http://www.w3.org/1999/xlink"
 xmlns:xodm="http://www.corel.com/coreldraw/odm/2003">
 <defs>
  <style type="text/css">
   <![CDATA[
    .fil1 {fill:#009E10}
    .fil0 {fill:#FA8901}
    .fil2 {fill:#009E10;fill-rule:nonzero}
    .fil3 {fill:#FA8901;fill-rule:nonzero}
   ]]>
  </style>
 </defs>
 <g id="Layer_x0020_1">
  <metadata id="CorelCorpID_0Corel-Layer"/>
  <circle class="fil0" cx="8989.52" cy="2027.56" r="523.26"/>
  <ellipse class="fil1" cx="11744.64" cy="3932.34" rx="79.52" ry="101.69"/>
  <path class="fil2" d="M2540.55 1079.76c0,296.37 -87.13,538.21 -261.4,725.52 -174.27,187.25 -412.82,300.47 -715.76,339.53 68.44,179.11 182.4,318.35 342.01,417.72 159.61,99.37 355.05,148.99 586.28,148.99l146.57 0 0 561.87 -170.98 0c-224.76,0 -431.57,-37.45 -620.49,-112.35 -188.92,-74.96 -351.77,-179.98 -488.58,-315.12 -136.76,-135.2 -242.65,-296.43 -317.55,-483.68 -74.9,-187.31 -112.35,-393.31 -112.35,-618.07l0 -122.1 405.49 0c185.63,0 335.49,-48.07 449.46,-144.15 114.02,-96.08 171.04,-228.8 171.04,-398.16 0,-166.13 -55.4,-298.04 -166.13,-395.79 -110.73,-97.69 -262.21,-146.57 -454.36,-146.57l-747.5 0 0 2735.99 -586.28 0 0 -3273.39 1333.78 0c185.63,0 352.57,25.27 500.76,75.71 148.24,50.49 274.44,122.97 378.66,217.43 104.21,94.46 184.83,207.62 241.84,339.53 57.01,131.91 85.52,280.96 85.52,447.09z"/>
  <path id="_1" class="fil2" d="M2792.95 2100.84c0,-175.88 30.12,-338.72 90.36,-488.58 60.3,-149.8 144.15,-279.29 251.65,-388.41 107.45,-109.12 235.32,-193.77 383.5,-254.01 148.18,-60.3 310.22,-90.42 486.1,-90.42 175.88,0 337.97,30.12 486.16,90.42 148.18,60.24 276,144.9 383.5,254.01 107.5,109.12 191.35,238.61 251.65,388.41 60.24,149.86 90.36,312.7 90.36,488.58 0,22.79 -0.81,44.78 -2.42,65.96 -1.67,21.18 -5.71,48.01 -12.23,80.61l-1861.43 0c29.31,166.13 101.79,297.23 217.37,393.31 115.64,96.08 264.69,144.09 447.04,144.09 123.78,0 233.7,-22.79 329.78,-68.38 96.14,-45.59 173.46,-112.35 232.09,-200.29l586.28 0c-39.07,123.78 -94.46,235.32 -166.13,334.63 -71.61,99.37 -157.13,184.02 -256.5,254.07 -99.31,70.05 -210.04,123.78 -332.2,161.23 -122.16,37.45 -253.21,56.2 -393.31,56.2 -175.88,0 -337.92,-30.12 -486.1,-90.42 -148.18,-60.24 -276.06,-144.09 -383.5,-251.59 -107.5,-107.5 -191.35,-236.13 -251.65,-385.98 -60.24,-149.8 -90.36,-314.32 -90.36,-493.43zm1851.67 -244.26c-45.59,-136.82 -123.78,-244.32 -234.51,-322.45 -110.73,-78.19 -245.94,-117.26 -405.55,-117.26 -162.84,0 -299.6,39.07 -410.39,117.26 -110.73,78.13 -187.25,185.63 -229.61,322.45l1280.05 0z"/>
  <path id="_2" class="fil2" d="M7437.51 928.29c0,237.74 -50.43,448.65 -151.42,632.67 -100.98,184.02 -244.32,333.07 -429.95,447.04 91.23,65.15 176.69,146.57 256.5,244.32 79.81,97.69 158.8,214.95 236.93,351.77l385.98 669.31 -620.49 0 -307.79 -532.55c-55.34,-94.46 -109.93,-173.4 -163.65,-236.93 -53.72,-63.53 -111.54,-114.83 -173.46,-153.9 -61.86,-39.07 -130.24,-66.76 -205.2,-83.04 -74.9,-16.33 -161.23,-24.47 -258.92,-24.47l-24.41 0 0 1030.89 -537.46 0 0 -3273.39 537.46 0 0 1714.86 48.82 0c276.87,0 491.01,-69.19 642.48,-207.62 151.47,-138.43 227.18,-331.4 227.18,-578.95l537.4 0z"/>
  <path id="_3" class="fil2" d="M7621.53 2100.84c0,-172.65 31.74,-333.07 95.27,-481.25 63.53,-148.18 149.8,-277.67 258.92,-388.41 109.12,-110.73 238.61,-197.06 388.41,-258.92 149.86,-61.92 309.47,-92.85 478.83,-92.85 172.59,0 333.01,30.93 481.2,92.85 148.24,61.86 277.67,148.18 388.41,258.92 110.79,110.73 197.06,240.22 258.98,388.41 61.86,148.18 92.85,308.6 92.85,481.25 0,169.36 -30.99,328.97 -92.85,478.77 -61.92,149.86 -148.18,279.29 -258.98,388.41 -110.73,109.12 -240.17,195.44 -388.41,258.98 -148.18,63.47 -308.6,95.27 -481.2,95.27 -169.36,0 -328.97,-31.8 -478.83,-95.27 -149.8,-63.53 -279.29,-149.86 -388.41,-258.98 -109.12,-109.12 -195.39,-238.55 -258.92,-388.41 -63.53,-149.8 -95.27,-309.41 -95.27,-478.77zm537.4 0c0,97.69 17.95,188.12 53.78,271.15 35.83,83.04 83.84,154.71 144.09,214.95 60.3,60.3 131.91,108.31 215.01,144.15 83.04,35.83 173.4,53.72 271.15,53.72 97.69,0 188.06,-17.89 271.15,-53.72 83.04,-35.83 155.51,-83.84 217.37,-144.15 61.92,-60.24 109.93,-131.91 144.15,-214.95 34.22,-83.04 51.3,-173.46 51.3,-271.15 0,-97.69 -17.08,-188.12 -51.3,-271.15 -34.22,-83.04 -82.23,-155.51 -144.15,-217.43 -61.86,-61.86 -134.34,-109.93 -217.37,-144.09 -83.09,-34.22 -173.46,-51.3 -271.15,-51.3 -97.75,0 -188.12,17.08 -271.15,51.3 -83.09,34.16 -154.71,82.23 -215.01,144.09 -60.24,61.92 -108.25,134.39 -144.09,217.43 -35.83,83.04 -53.78,173.46 -53.78,271.15z"/>
  <path id="_4" class="fil2" d="M11391.58 1416.87c-172.59,0 -309.41,47.2 -410.39,141.66 -100.92,94.46 -151.42,223.08 -151.42,385.98l0 1328.87 -537.46 0 0 -1309.37c0,-166.07 26.08,-315.93 78.19,-449.46 52.11,-133.53 126.2,-247.55 222.28,-342.01 96.08,-94.46 211.72,-166.94 346.92,-217.37 135.14,-50.49 285.81,-75.77 451.88,-75.77l0 537.46z"/>
  <path id="_5" class="fil2" d="M13280.65 0l537.46 0 0 2393.98 -537.46 0 0 -317.55c0,-94.46 -17.08,-181.6 -51.3,-261.4 -34.16,-79.81 -80.61,-148.99 -139.24,-207.62 -58.63,-58.63 -127.82,-105.08 -207.62,-139.24 -79.81,-34.22 -166.94,-51.3 -261.4,-51.3 -91.17,0 -176.69,17.08 -256.5,51.3 -79.75,34.16 -149.8,80.61 -210.04,139.24 -60.24,58.63 -107.5,127.82 -141.72,207.62 -34.16,79.81 -51.3,166.94 -51.3,261.4 0,91.17 17.14,177.5 51.3,258.92 34.22,81.42 81.48,151.47 141.72,210.1 60.24,58.63 130.3,105.02 210.04,139.24 79.81,34.16 165.32,51.3 256.5,51.3l1197.02 0 0 537.4 -1197.02 0c-166.07,0 -322.45,-30.93 -469.02,-92.85 -146.57,-61.86 -273.58,-146.57 -381.08,-254.01 -107.45,-107.5 -192.16,-233.7 -254.01,-378.66 -61.92,-144.95 -92.85,-302.08 -92.85,-471.44 0,-166.13 30.12,-322.45 90.36,-469.02 60.3,-146.57 141.72,-273.63 244.32,-381.08 102.6,-107.5 224.7,-192.21 366.42,-254.07 141.66,-61.92 292.33,-92.85 451.88,-92.85 136.82,0 263.82,21.18 381.08,63.53 117.26,42.35 224.76,100.98 322.45,175.88l0 -1118.83z"/>
  <polygon id="_6" class="fil2" points="14681.19,0 14681.19,3273.39 14143.73,3273.39 14143.73,0 "/>
  <path id="_7" class="fil2" d="M15094.76 3664.22c110.73,0 208.49,-10.56 293.14,-31.74 84.71,-21.18 159.61,-55.4 224.76,-102.6 65.15,-47.2 124.58,-108.31 178.31,-183.21 53.78,-74.9 103.46,-167.75 149.05,-278.48l122.1 -283.39 -464.12 0 -786.57 -1856.52 581.37 0 727.94 1714.86 728 -1714.86 581.37 0 -982.01 2310.88c-71.67,172.65 -151.47,319.22 -239.42,439.71 -87.94,120.54 -186.44,219.85 -295.56,298.04 -109.12,78.19 -231.22,135.2 -366.42,170.98 -135.14,35.83 -285.81,53.78 -451.94,53.78l0 -537.46z"/>
  <polygon class="fil3" points="7411.14,4160.6 7485.92,4160.6 7485.92,3760.94 7650.78,3760.94 7650.78,3690.31 7246.28,3690.31 7246.28,3760.94 7411.14,3760.94 "/>
  <path id="_1_0" class="fil3" d="M7706.18 4160.6l74.84 0 0 -179.4c1.38,-76.17 56.09,-128.1 146.8,-128.1l0 -61.69c-76.17,0 -130.18,36.07 -146.8,79.69l0 -69.3 -74.84 0 0 358.81z"/>
  <path id="_2_1" class="fil3" d="M8149.46 4170.98c58.4,0 96.6,-22.85 120.14,-47.09l-0.69 36.7 75.19 0 0 -358.11 -74.15 0 0 34.68c-24.93,-24.99 -68.55,-45.07 -120.49,-45.07 -109.47,0 -187.02,85.23 -187.02,189.79 0,104.62 77.55,189.1 187.02,189.1zm5.54 -66.48c-67.17,0 -117.77,-55.4 -117.77,-123.31 0,-67.86 50.61,-122.56 117.77,-122.56 66.48,0 119.1,45.01 119.1,122.56 0,78.3 -52.63,123.31 -119.1,123.31z"/>
  <path id="_3_2" class="fil3" d="M8630.83 4170.98c36.7,0 95.56,-8.31 128.16,-33.93l0 -69.25c0,0 -44.37,37.39 -128.16,37.39 -79.63,0 -130.24,-49.86 -130.24,-124.01 0,-67.86 52.68,-123.26 123.31,-123.26 85.86,0 128.16,54.01 128.16,54.01l0 -76.86c-31.91,-29.83 -83.84,-42.99 -128.16,-42.99 -116.39,0 -196.02,84.54 -196.02,189.1 0,104.62 69.25,189.79 202.95,189.79z"/>
  <polygon id="_4_3" class="fil3" points="9092.81,4160.6 9189.12,4160.6 9002.1,3936.18 9161.43,3802.48 9064.42,3802.48 8913.47,3928.57 8913.47,3677.84 8838.63,3690.31 8838.63,4160.6 8913.47,4160.6 8913.47,4010.28 8946.71,3981.89 "/>
  <path id="_5_4" class="fil3" d="M10004.37 4170.98c55.4,0 99.77,-17.31 127.47,-34.62l0 24.24 75.48 0 0 -274.96 -216.1 0 0 70.63 140.63 0 0 101.85c-27.7,20.77 -72.77,42.24 -127.47,42.24 -99.02,0 -169.02,-77.61 -169.02,-175.25 0,-98.33 67.23,-175.25 181.48,-175.25 41.55,0 76.23,6.23 104.62,18.7 28.39,11.77 48.47,22.85 60.94,33.24l0 -80.32c-13.16,-8.31 -34.62,-17.31 -63.71,-27.01 -28.39,-10.39 -62.38,-15.23 -101.85,-15.23 -154.42,-2.08 -261.8,111.48 -259.73,245.88 -2.08,134.39 101.85,245.88 247.26,245.88z"/>
  <path id="_6_5" class="fil3" d="M10315.34 4160.6l74.84 0 0 -179.4c1.38,-76.17 56.09,-128.1 146.8,-128.1l0 -61.69c-76.17,0 -130.18,36.07 -146.8,79.69l0 -69.3 -74.84 0 0 358.81z"/>
  <path id="_7_6" class="fil3" d="M10767.62 4170.98c108.71,0 196.02,-84.48 196.02,-189.1 0,-104.56 -87.31,-189.79 -196.02,-189.79 -108.77,0 -196.02,85.23 -196.02,189.79 0,104.62 87.25,189.1 196.02,189.1zm0 -67.17c-70.63,0 -124.01,-54.7 -124.01,-121.93 0,-67.86 53.38,-122.56 124.01,-122.56 70.63,0 124.01,54.7 124.01,122.56 0,67.23 -53.38,121.93 -124.01,121.93z"/>
  <polygon id="_8" class="fil3" points="11136.82,4188.99 11234.45,3950.03 11335.61,4188.99 11474.1,3802.48 11395.85,3802.48 11330.07,4009.58 11235.15,3787.94 11147.9,4008.89 11076.52,3802.48 10998.27,3802.48 "/>
  <path id="_9" class="fil3" d="M12223.56 4171.68c106.64,0 176.63,-57.47 176.63,-135.09 0,-82.4 -47.14,-114.25 -141.32,-153.03 -63.71,-26.31 -94.87,-39.47 -94.87,-81.07 0,-34.62 33.93,-53.32 85.17,-54.01 50.55,0 96.25,19.39 123.95,45.01l0 -81.02c-33.93,-22.85 -73.4,-36.7 -117.02,-36.01 -99.02,0 -169.71,51.93 -169.71,126.03 0,82.46 45.7,115 138.55,153.78 63.71,26.31 97.64,43.62 97.64,79.63 0,38.14 -27.01,64.46 -99.02,64.46 -56.09,0 -115,-21.47 -157.24,-54.7l0 77.55c27.01,23.54 79.63,48.47 157.24,48.47z"/>
  <path id="_10" class="fil3" d="M12649.54 4171.68c45.01,0 162.78,-3.46 162.78,-155.86l0 -213.33 -74.84 0 0 215.41c0,0 4.15,88 -87.94,88 -92.1,0 -87.94,-88 -87.94,-88l0 -215.41 -74.84 0 0 213.33c0,152.4 117.77,155.86 162.78,155.86z"/>
  <path id="_11" class="fil3" d="M13091.44 4170.98c36.7,0 95.56,-8.31 128.16,-33.93l0 -69.25c0,0 -44.37,37.39 -128.16,37.39 -79.63,0 -130.24,-49.86 -130.24,-124.01 0,-67.86 52.68,-123.26 123.31,-123.26 85.86,0 128.16,54.01 128.16,54.01l0 -76.86c-31.91,-29.83 -83.84,-42.99 -128.16,-42.99 -116.39,0 -196.02,84.54 -196.02,189.1 0,104.62 69.25,189.79 202.95,189.79z"/>
  <path id="_12" class="fil3" d="M13474.48 4170.98c36.7,0 95.56,-8.31 128.16,-33.93l0 -69.25c0,0 -44.37,37.39 -128.16,37.39 -79.63,0 -130.24,-49.86 -130.24,-124.01 0,-67.86 52.68,-123.26 123.31,-123.26 85.86,0 128.16,54.01 128.16,54.01l0 -76.86c-31.91,-29.83 -83.84,-42.99 -128.16,-42.99 -116.39,0 -196.02,84.54 -196.02,189.1 0,104.62 69.25,189.79 202.95,189.79z"/>
  <path id="_13" class="fil3" d="M13852.67 4170.98c104.56,0 143.4,-36.7 143.4,-36.7l0 -67.17c-0.69,0 -54.07,37.39 -142.01,37.39 -81.02,0 -119.85,-49.86 -128.16,-105.31l286.1 0 0 -34.62c0,-86.56 -60.3,-172.48 -164.17,-172.48 -110.85,0 -193.25,81.77 -193.25,189.1 0,103.23 72.01,189.79 198.1,189.79zm-123.31 -229.95c4.15,-27.7 30.53,-87.94 108.77,-87.94 78.25,0 96.25,60.24 99.02,87.94l-207.79 0z"/>
  <path id="_14" class="fil3" d="M14265.49 4170.98c104.56,0 143.4,-36.7 143.4,-36.7l0 -67.17c-0.69,0 -54.07,37.39 -142.01,37.39 -81.02,0 -119.85,-49.86 -128.16,-105.31l286.1 0 0 -34.62c0,-86.56 -60.3,-172.48 -164.17,-172.48 -110.85,0 -193.25,81.77 -193.25,189.1 0,103.23 72.01,189.79 198.1,189.79zm-123.31 -229.95c4.15,-27.7 30.53,-87.94 108.77,-87.94 78.25,0 96.25,60.24 99.02,87.94l-207.79 0z"/>
  <path id="_15" class="fil3" d="M14667.22 4170.98c57.94,0 96.02,-22.85 119.56,-47.09l-0.69 36.7 76.46 0 0 -482.75 -74.84 12.46 0 146.86c-24.93,-24.99 -68.55,-45.07 -120.49,-45.07 -109.47,0 -187.02,85.23 -187.02,189.79 0,104.62 77.55,189.1 187.02,189.1zm5.54 -66.48c-67.17,0 -119.85,-55.4 -119.85,-123.31 0,-67.86 52.68,-122.56 119.85,-122.56 66.48,0 119.1,45.01 119.1,122.56 0,78.3 -52.63,123.31 -119.1,123.31z"/>
  <ellipse class="fil1" cx="9426.06" cy="3932.34" rx="79.52" ry="101.69"/>
 </g>
</svg>
